<?xml version="1.0" encoding="utf-8"?>
<!-- Generator: Adobe Illustrator 27.2.0, SVG Export Plug-In . SVG Version: 6.00 Build 0)  -->
<svg version="1.1" id="圖層_1" xmlns="http://www.w3.org/2000/svg" xmlns:xlink="http://www.w3.org/1999/xlink" x="0px" y="0px"
	 viewBox="0 0 179.4 90.8" style="enable-background:new 0 0 179.4 90.8;" xml:space="preserve">
<style type="text/css">
	.st0{fill:#F5AD6E;}
	.st1{fill:#6A4B70;}
	.st2{fill:#3F2D43;}
	.st3{fill:#E88B50;}
	.st4{fill:#877588;}
	.st5{fill:#907E93;}
	.st6{fill:#59425D;}
	.st7{fill:#D2D2D7;}
	.st8{fill:#FEFDFE;}
	.st9{fill:#58475B;}
	.st10{fill:#433644;}
	.st11{fill:#312934;}
	.st12{fill:#AB9EAD;}
	.st13{fill:#523A36;}
	.st14{fill:#F5AD6D;}
	.st15{fill:#755F78;}
	.st16{fill:#3E2C28;}
	.st17{fill:#6A4F4B;}
</style>
<rect x="98.1" y="43.1" class="st0" width="63.9" height="19.2"/>
<g>
	<rect x="66.1" y="71" class="st1" width="62.7" height="1.2"/>
	<rect x="67" y="42.1" class="st2" width="1.2" height="28.8"/>
	<path class="st3" d="M67,18.2v40.2H47.7c-2.1,0-4,1.4-4.6,3.5l-2.4,8.3H16.4V46.6c0,0,0.2-1.9,0.7-4.8c0.8-4.1,2.2-10.3,4.7-16.4
		c1-2.3,2.1-4.7,3.4-6.9c0-0.1,0.1-0.1,0.1-0.2c1.7-2.7,4.6-4.3,7.8-4.3h29.7C65.2,14.1,67,15.9,67,18.2z"/>
	<path class="st4" d="M67,18.2v7.2h-8.2v-6.1c0-1.2-1-2.2-2.2-2.2H29.9c-2.6,0-4.9,2.8-6.9,8.2h-1.2c1-2.3,2.1-4.7,3.4-6.9
		c0-0.1,0.1-0.1,0.1-0.2c1.7-2.7,4.6-4.3,7.8-4.3h29.7C65.2,14.1,67,15.9,67,18.2z"/>
	<path class="st5" d="M67,55.2v3.2H47.7c-2.1,0-4,1.4-4.6,3.5l-2.4,8.3h-3.3l1.4-4.7l1.3-4.5c1-3.4,4.2-5.7,7.7-5.7H67z"/>
	<polygon class="st1" points="38.7,65.3 38.7,65.4 37.3,70.1 16.4,70.1 16.4,65.3 	"/>
	<path class="st6" d="M18.4,63.5v-0.9c0-0.5-0.4-1-1-1h-2.2c-0.8,0-1.5,0.7-1.5,1.5v5.7c0,1,0.8,1.8,1.8,1.8H18h0.4H23
		c0.8,0,1.4-0.6,1.4-1.4v-3.5c0-0.7-0.5-1.2-1.2-1.2h-3.9C18.8,64.4,18.4,64,18.4,63.5z"/>
	<path class="st7" d="M18.7,50.7v6.1c0,0.3-0.3,0.6-0.6,0.6h-1.8c-0.1,0-0.2-0.1-0.2-0.2v-5.5c0-0.5,0.2-1,0.6-1.2
		c0.4-0.2,0.8-0.4,1.3-0.4c0.1,0,0.2,0,0.2,0C18.5,50.2,18.7,50.4,18.7,50.7z"/>
	<path class="st8" d="M18.7,50.7v6.1c0,0.3-0.3,0.6-0.6,0.6H17c-0.1,0-0.2-0.1-0.2-0.2v-5.5c0-0.5,0.2-1,0.6-1.2
		c0.2-0.2,0.5-0.3,0.8-0.3C18.5,50.2,18.7,50.4,18.7,50.7z"/>
	<path class="st2" d="M67,58.4v7.9H41.8l1.3-4.4c0.6-2.1,2.5-3.5,4.6-3.5H67z"/>
	<g>
		<ellipse transform="matrix(0.9239 -0.3827 0.3827 0.9239 -23.4322 26.548)" class="st9" cx="55" cy="72.2" rx="13.2" ry="13.2"/>
		
			<ellipse transform="matrix(0.2298 -0.9732 0.9732 0.2298 -27.8676 109.1371)" class="st10" cx="55" cy="72.2" rx="10.6" ry="10.6"/>
		<path class="st11" d="M62.3,72.5c0,0.5-0.1,1.1-0.2,1.6c-0.2,0.8-0.5,1.5-0.9,2.1c-0.6,0.9-1.3,1.7-2.2,2.2
			c-0.6,0.4-1.3,0.7-2.1,0.9h0c-0.5,0.1-1,0.2-1.6,0.2c-0.5,0-1.1-0.1-1.6-0.2c-0.8-0.2-1.5-0.5-2.1-0.9c-0.9-0.6-1.7-1.3-2.2-2.2
			c-0.4-0.6-0.7-1.4-0.9-2.1c-0.1-0.5-0.2-1-0.2-1.6c0-0.5,0.1-1.1,0.2-1.6c0.2-0.8,0.5-1.5,0.9-2.1c0.6-0.9,1.3-1.7,2.2-2.2
			c0.6-0.4,1.4-0.7,2.1-0.9c0.5-0.1,1-0.2,1.6-0.2c0.5,0,1.1,0.1,1.6,0.2h0c0.8,0.2,1.5,0.5,2.1,0.9c0.9,0.6,1.7,1.3,2.2,2.2
			c0.4,0.6,0.7,1.4,0.9,2.1C62.3,71.4,62.3,72,62.3,72.5z"/>
		<path class="st9" d="M55,80.4c-0.6,0-1.2-0.1-1.9-0.2c-0.9-0.2-1.7-0.5-2.5-1c-1.1-0.7-2-1.6-2.6-2.6c-0.5-0.8-0.8-1.6-1-2.5
			c-0.1-0.6-0.2-1.2-0.2-1.9c0-0.6,0.1-1.3,0.2-1.9c0.2-0.9,0.5-1.7,1-2.5c0.7-1.1,1.6-2,2.6-2.6c0.8-0.5,1.6-0.8,2.5-1
			c1.2-0.3,2.4-0.3,3.6,0c0,0,0,0,0,0l0.1,0c0.9,0.2,1.7,0.5,2.5,1c1.1,0.7,2,1.6,2.6,2.6c0.5,0.8,0.8,1.6,1,2.5
			c0.1,0.6,0.2,1.2,0.2,1.9c0,0.6-0.1,1.2-0.2,1.9c-0.2,0.9-0.6,1.7-1,2.5c-0.7,1.1-1.6,2-2.6,2.6c-0.8,0.5-1.6,0.8-2.5,1l-0.1,0
			c0,0,0,0,0,0C56.2,80.3,55.6,80.4,55,80.4z M55,64.3c-0.6,0-1.2,0.1-1.8,0.2c-0.8,0.2-1.7,0.5-2.4,1c-1,0.6-1.9,1.5-2.5,2.5
			c-0.5,0.7-0.8,1.5-1,2.4c-0.1,0.6-0.2,1.2-0.2,1.8c0,0.6,0.1,1.2,0.2,1.8c0.2,0.8,0.5,1.6,1,2.4c0.6,1,1.5,1.9,2.5,2.5
			c0.7,0.5,1.5,0.8,2.4,1c1.1,0.3,2.3,0.3,3.4,0c0,0,0,0,0,0l0.1,0c0.8-0.2,1.6-0.5,2.4-1c1-0.6,1.9-1.5,2.5-2.5
			c0.5-0.7,0.8-1.5,1-2.4c0.1-0.6,0.2-1.2,0.2-1.8c0-0.6-0.1-1.2-0.2-1.8c-0.2-0.8-0.5-1.7-1-2.4c-0.6-1-1.5-1.9-2.5-2.5
			c-0.7-0.5-1.5-0.8-2.4-1l-0.1,0c0,0,0,0,0,0C56.1,64.3,55.6,64.3,55,64.3z"/>
		<path class="st9" d="M62,72.2c0,0.5-0.1,1.1-0.2,1.6c-0.2,0.8-0.5,1.5-0.9,2.1c-0.6,0.9-1.3,1.7-2.2,2.2c-0.6,0.4-1.3,0.7-2.1,0.9
			h0c-0.5,0.1-1,0.2-1.6,0.2c-0.5,0-1.1-0.1-1.6-0.2c-0.8-0.2-1.5-0.5-2.1-0.9c-0.9-0.6-1.7-1.3-2.2-2.2c-0.4-0.6-0.7-1.4-0.9-2.1
			c-0.1-0.5-0.2-1-0.2-1.6c0-0.5,0.1-1.1,0.2-1.6c0.2-0.8,0.5-1.5,0.9-2.1c0.6-0.9,1.3-1.7,2.2-2.2c0.6-0.4,1.4-0.7,2.1-0.9
			c0.5-0.1,1-0.2,1.6-0.2c0.5,0,1.1,0.1,1.6,0.2h0c0.8,0.2,1.5,0.5,2.1,0.9c0.9,0.6,1.7,1.3,2.2,2.2c0.4,0.6,0.7,1.4,0.9,2.1
			C61.9,71.1,62,71.6,62,72.2z"/>
		<path class="st2" d="M56.6,65.4c-0.1,0.4-0.8,0.8-1.6,0.8c-0.8,0-1.4-0.3-1.6-0.8c0.5-0.1,1-0.2,1.6-0.2
			C55.6,65.2,56.1,65.3,56.6,65.4z"/>
		<path class="st2" d="M50.8,67.9c-0.6,0.6-1.2,0.8-1.7,0.6c0.6-0.9,1.3-1.7,2.2-2.2C51.5,66.7,51.3,67.4,50.8,67.9z"/>
		<path class="st2" d="M49,72.2c0,0.8-0.3,1.4-0.8,1.6c-0.1-0.5-0.2-1-0.2-1.6c0-0.5,0.1-1.1,0.2-1.6C48.7,70.7,49,71.4,49,72.2z"/>
		<path class="st2" d="M51.3,78.1c-0.9-0.6-1.7-1.3-2.2-2.2c0.4-0.2,1.1,0,1.7,0.6C51.3,77,51.5,77.7,51.3,78.1z"/>
		<path class="st2" d="M56.6,79c-0.5,0.1-1,0.2-1.6,0.2c-0.5,0-1.1-0.1-1.6-0.2c0.1-0.4,0.8-0.8,1.6-0.8
			C55.8,78.2,56.5,78.5,56.6,79z"/>
		<path class="st2" d="M60.9,75.9c-0.6,0.9-1.3,1.7-2.2,2.2c-0.2-0.4,0-1.1,0.6-1.7C59.8,75.9,60.5,75.7,60.9,75.9z"/>
		<path class="st2" d="M62,72.2c0,0.5-0.1,1.1-0.2,1.6C61.4,73.6,61,73,61,72.2c0-0.8,0.3-1.4,0.8-1.6C61.9,71.1,62,71.6,62,72.2z"
			/>
		<path class="st2" d="M60.9,68.5c-0.4,0.2-1.1,0-1.7-0.6c-0.6-0.6-0.8-1.2-0.6-1.7C59.6,66.8,60.4,67.6,60.9,68.5z"/>
		<path class="st10" d="M56.3,72.2c0,0.7-0.6,1.3-1.3,1.3c-0.7,0-1.3-0.6-1.3-1.3c0-0.7,0.6-1.3,1.3-1.3
			C55.7,70.9,56.3,71.5,56.3,72.2z"/>
	</g>
	<path class="st12" d="M56.9,19.9v13.4c0,0.8-0.6,1.5-1.4,1.5c-7.1,0.6-24.9,4.5-32.7,6.3c-1.2,0.3-2.3-0.8-2-2
		c1.1-5.4,3.2-12.8,6.8-19.3c0.5-1,1.5-1.6,2.6-1.6h25.2C56.2,18.4,56.9,19.1,56.9,19.9z"/>
	<path class="st13" d="M56.1,19.9v13.4c0,0.4-0.3,0.7-0.7,0.8c-1.9,0.1-4.5,0.5-7.5,1c-3.1,0.5-6.6,1.2-10.1,1.9
		c-2.3,0.5-4.5,0.9-6.6,1.4c-0.7,0.2-1.5,0.3-2.2,0.5c-2.5,0.6-4.8,1.1-6.5,1.4c-0.1,0-0.1,0-0.2,0c-0.3,0-0.5-0.1-0.7-0.3
		c-0.1-0.1-0.3-0.4-0.2-0.8c0.4-1.8,0.9-3.9,1.5-6.2c1.2-4.1,2.9-8.7,5.1-12.9c0.4-0.7,1.1-1.2,1.9-1.2h25.3
		C55.8,19.2,56.1,19.5,56.1,19.9z"/>
	<path class="st1" d="M57.7,17.5c-0.3-0.2-0.7-0.3-1.1-0.3H29.9c-2.6,0-4.9,2.8-6.9,8.2c-0.3,0.9-0.6,1.8-1,2.8
		c-1.7,5.4-2.5,10.9-2.6,11c0,0,0,0,0,0v20.6c0,2.3,1.9,4.2,4.2,4.2H34c0.6,0,1.2-0.1,1.7-0.3c1.4-0.5,2.5-1.6,3-3
		c0.2-0.6,0.5-1.3,0.8-1.9c1.6-3,4.6-5,8-5.3c0.3,0,0.7-0.1,1-0.1h6.5c0.5,0,1-0.1,1.5-0.3c1.3-0.6,2.2-1.9,2.2-3.4V19.4
		C58.8,18.6,58.4,17.9,57.7,17.5z M58.5,49.7c0,1.9-1.5,3.4-3.4,3.4h-6.5c-3.9,0-7.5,2.1-9.3,5.5c-0.4,0.6-0.6,1.3-0.9,1.9
		c-0.7,1.9-2.4,3.1-4.4,3.1H23.6c-2.1,0-3.8-1.7-3.8-3.8V39.2c0.1-0.4,1.2-7.7,3.5-13.8c1.6-4.3,3.8-7.9,6.6-7.9h26.7
		c1,0,1.9,0.8,1.9,1.9V49.7z"/>
	<path class="st1" d="M52.7,41.8h-5.9c-0.4,0-0.8-0.3-0.8-0.8v-0.9c0-0.4,0.3-0.8,0.8-0.8h5.9c0.4,0,0.8,0.3,0.8,0.8v0.9
		C53.4,41.5,53.1,41.8,52.7,41.8z"/>
	<path class="st1" d="M60.2,19.4v30.4c0,1.9-1.5,3.4-3.4,3.4h-0.2c1.3-0.6,2.2-1.9,2.2-3.4V19.4c0-0.8-0.4-1.5-1.1-1.9h0.6
		C59.4,17.5,60.2,18.3,60.2,19.4z"/>
	<path class="st12" d="M52.3,41.6h-5.9c-0.4,0-0.8-0.3-0.8-0.8v-0.9c0-0.4,0.3-0.8,0.8-0.8h5.9c0.4,0,0.8,0.3,0.8,0.8v0.9
		C53.1,41.2,52.7,41.6,52.3,41.6z"/>
	<path class="st8" d="M52.5,41h-6.3c-0.4,0-0.7-0.3-0.7-0.7l0,0c0-0.4,0.3-0.7,0.7-0.7h6.3c0.4,0,0.7,0.3,0.7,0.7l0,0
		C53.1,40.7,52.8,41,52.5,41z"/>
	<path class="st5" d="M50.1,12.8h-8.7c-0.3,0-0.6,0.3-0.6,0.6v0.7h9.8v-0.7C50.7,13.1,50.4,12.8,50.1,12.8z"/>
	<path class="st14" d="M48.9,11.4v1.4h-6.4v-1.4c0-0.8,0.6-1.4,1.4-1.4h3.5C48.2,10,48.9,10.6,48.9,11.4z"/>
	<path class="st3" d="M48.9,11.4v1.4h-4.9v-1.4c0-0.8,0.6-1.4,1.4-1.4h2.1C48.2,10,48.9,10.6,48.9,11.4z"/>
	<path class="st0" d="M164,65.2v4c0,0.5-0.4,0.9-0.9,0.9H68.3V33.2c0-0.8,0.6-1.5,1.5-1.5h23.1c2.2,0,4.1,1.1,5.3,2.7
		c0.7,1,1.2,2.3,1.2,3.7v4.3c0,5.3,4.3,9.6,9.6,9.6h28.7c0.9,0,1.9,0.2,2.7,0.6l21.7,9.6l0.1,0.1C163.3,62.9,164,64,164,65.2z"/>
	<path class="st12" d="M87.2,37.9v10.4c0,0.5-0.4,0.9-0.9,0.9h-8.6c-0.5,0-0.9-0.4-0.9-0.9V37.9c0-0.5,0.4-0.9,0.9-0.9h8.6
		C86.9,37,87.2,37.4,87.2,37.9z"/>
	<path class="st1" d="M88.2,38.7v10.4c0,0.5-0.4,0.9-0.9,0.9h-8.6c-0.5,0-0.9-0.4-0.9-0.8h8.5c0.5,0,0.9-0.4,0.9-0.9V37.9h0.1
		C87.8,37.9,88.2,38.3,88.2,38.7z"/>
	<path class="st15" d="M79.8,40.3h-1.4c-0.1,0-0.2-0.1-0.2-0.2v-0.8c0-0.1,0.1-0.2,0.2-0.2h1.4c0.1,0,0.2,0.1,0.2,0.2v0.8
		C80,40.2,79.9,40.3,79.8,40.3z"/>
	<path class="st15" d="M79.8,42.4h-1.4c-0.1,0-0.2-0.1-0.2-0.2v-0.8c0-0.1,0.1-0.2,0.2-0.2h1.4c0.1,0,0.2,0.1,0.2,0.2v0.8
		C80,42.3,79.9,42.4,79.8,42.4z"/>
	<path class="st15" d="M79.8,44.5h-1.4c-0.1,0-0.2-0.1-0.2-0.2v-0.8c0-0.1,0.1-0.2,0.2-0.2h1.4c0.1,0,0.2,0.1,0.2,0.2v0.8
		C80,44.4,79.9,44.5,79.8,44.5z"/>
	<path class="st15" d="M83.1,40.3h-1.4c-0.1,0-0.2-0.1-0.2-0.2v-0.8c0-0.1,0.1-0.2,0.2-0.2h1.4c0.1,0,0.2,0.1,0.2,0.2v0.8
		C83.3,40.2,83.2,40.3,83.1,40.3z"/>
	<path class="st15" d="M83.1,42.4h-1.4c-0.1,0-0.2-0.1-0.2-0.2v-0.8c0-0.1,0.1-0.2,0.2-0.2h1.4c0.1,0,0.2,0.1,0.2,0.2v0.8
		C83.3,42.3,83.2,42.4,83.1,42.4z"/>
	<path class="st15" d="M83.1,44.5h-1.4c-0.1,0-0.2-0.1-0.2-0.2v-0.8c0-0.1,0.1-0.2,0.2-0.2h1.4c0.1,0,0.2,0.1,0.2,0.2v0.8
		C83.3,44.4,83.2,44.5,83.1,44.5z"/>
	<path class="st15" d="M86.4,40.3H85c-0.1,0-0.2-0.1-0.2-0.2v-0.8c0-0.1,0.1-0.2,0.2-0.2h1.4c0.1,0,0.2,0.1,0.2,0.2v0.8
		C86.6,40.2,86.5,40.3,86.4,40.3z"/>
	<path class="st15" d="M86.4,42.4H85c-0.1,0-0.2-0.1-0.2-0.2v-0.8c0-0.1,0.1-0.2,0.2-0.2h1.4c0.1,0,0.2,0.1,0.2,0.2v0.8
		C86.6,42.3,86.5,42.4,86.4,42.4z"/>
	<path class="st1" d="M162.2,62.4l-0.1-0.1h-9.8l-3.1-4.4c-0.4-0.6-1.2-1-1.9-1h-18.8c-0.8,0-1.5,0.4-2,1.1l-2.8,4.3H68.3v4H164
		v-1.1C164,64,163.3,62.9,162.2,62.4z"/>
	<path class="st15" d="M86.4,44.5H85c-0.1,0-0.2-0.1-0.2-0.2v-0.8c0-0.1,0.1-0.2,0.2-0.2h1.4c0.1,0,0.2,0.1,0.2,0.2v0.8
		C86.6,44.4,86.5,44.5,86.4,44.5z"/>
	<circle class="st15" cx="82.1" cy="47.2" r="0.9"/>
	<polygon class="st3" points="125.1,66.3 124,70.1 68.3,70.1 68.3,66.3 	"/>
	<path class="st3" d="M164,66.3v3c0,0.5-0.4,0.9-0.9,0.9h-12.8v-3.2c0-0.2,0-0.4,0-0.7H164z"/>
	<path class="st2" d="M150.4,66.9v3.2H124l1.1-3.8l1.3-4.4c0.6-2.1,2.5-3.5,4.6-3.5h10.8c4.5,0,8.2,3.5,8.5,7.9
		C150.4,66.5,150.4,66.7,150.4,66.9z"/>
	<polygon class="st14" points="74.1,70.1 69.9,70.1 71.5,66.3 75.7,66.3 	"/>
	<polygon class="st14" points="82.5,70.1 78.3,70.1 79.8,66.3 84,66.3 	"/>
	<polygon class="st14" points="90.8,70.1 86.6,70.1 88.2,66.3 92.4,66.3 	"/>
	<polygon class="st14" points="99.2,70.1 95,70.1 96.5,66.3 100.8,66.3 	"/>
	<polygon class="st14" points="107.5,70.1 103.3,70.1 104.9,66.3 109.1,66.3 	"/>
	<polygon class="st14" points="115.9,70.1 111.7,70.1 113.3,66.3 117.5,66.3 	"/>
	<polygon class="st14" points="125.1,66.3 124,70.1 120,70.1 121.6,66.3 	"/>
	<polygon class="st14" points="153.5,70.1 149.3,70.1 150.9,66.3 155.1,66.3 	"/>
	<polygon class="st14" points="161.9,70.1 157.7,70.1 159.2,66.3 163.5,66.3 	"/>
	<path class="st16" d="M56.1,28.5v4.9c0,0.4-0.3,0.7-0.7,0.8c-7.2,0.6-25.4,4.6-32.9,6.3c-0.1,0-0.1,0-0.2,0c-0.3,0-0.5-0.1-0.7-0.3
		c-0.1-0.1-0.3-0.4-0.2-0.8c0.4-1.8,0.9-3.9,1.5-6.2L56.1,28.5z"/>
	<g>
		<g>
			<path class="st17" d="M38.1,19.2l-6.9,19.4c-0.7,0.2-1.5,0.3-2.2,0.5l7.1-19.9H38.1z"/>
			<path class="st17" d="M53.7,19.2l-5.7,16c-3.1,0.5-6.6,1.2-10.1,1.9l6.4-18H53.7z"/>
		</g>
	</g>
	<path class="st4" d="M98.1,34.5H68.3v-1.3c0-0.8,0.6-1.5,1.5-1.5h23.1C95,31.7,97,32.8,98.1,34.5z"/>
	<g>
		<path class="st15" d="M74,53.4v5.2h41.5V43.1h-28L76,48.7c-0.7,0.3-1.3,1.2-1.6,2.4C74.1,51.8,74,52.6,74,53.4z"/>
		<path class="st3" d="M73.6,57.9h0.9c0.5,0,0.9-0.4,0.9-0.9v-4.3c0-0.5-0.4-0.9-0.9-0.9h-0.9c-0.5,0-0.9,0.4-0.9,0.9V57
			C72.7,57.5,73.1,57.9,73.6,57.9z"/>
	</g>
	<g>
		
			<ellipse transform="matrix(0.9239 -0.3827 0.3827 0.9239 -17.0877 58.4441)" class="st9" cx="138.4" cy="72.2" rx="13.2" ry="13.2"/>
		
			<ellipse transform="matrix(0.2298 -0.9732 0.9732 0.2298 36.3312 190.2559)" class="st10" cx="138.4" cy="72.2" rx="10.6" ry="10.6"/>
		<path class="st11" d="M145.7,72.5c0,0.5-0.1,1.1-0.2,1.6c-0.2,0.8-0.5,1.5-0.9,2.1c-0.6,0.9-1.3,1.7-2.2,2.2
			c-0.6,0.4-1.3,0.7-2.1,0.9h0c-0.5,0.1-1,0.2-1.6,0.2c-0.5,0-1.1-0.1-1.6-0.2c-0.8-0.2-1.5-0.5-2.1-0.9c-0.9-0.6-1.7-1.3-2.2-2.2
			c-0.4-0.6-0.7-1.4-0.9-2.1c-0.1-0.5-0.2-1-0.2-1.6c0-0.5,0.1-1.1,0.2-1.6c0.2-0.8,0.5-1.5,0.9-2.1c0.6-0.9,1.3-1.7,2.2-2.2
			c0.6-0.4,1.4-0.7,2.1-0.9c0.5-0.1,1-0.2,1.6-0.2c0.5,0,1.1,0.1,1.6,0.2h0c0.8,0.2,1.5,0.5,2.1,0.9c0.9,0.6,1.7,1.3,2.2,2.2
			c0.4,0.6,0.7,1.4,0.9,2.1C145.6,71.4,145.7,72,145.7,72.5z"/>
		<path class="st9" d="M138.4,80.4c-0.6,0-1.2-0.1-1.9-0.2c-0.9-0.2-1.7-0.5-2.5-1c-1.1-0.7-2-1.6-2.6-2.6c-0.5-0.8-0.8-1.6-1-2.5
			c-0.1-0.6-0.2-1.2-0.2-1.9c0-0.6,0.1-1.3,0.2-1.9c0.2-0.9,0.5-1.7,1-2.5c0.7-1.1,1.6-2,2.6-2.6c0.8-0.5,1.6-0.8,2.5-1
			c1.2-0.3,2.4-0.3,3.6,0c0,0,0,0,0,0l0.1,0c0.9,0.2,1.7,0.5,2.5,1c1.1,0.7,2,1.6,2.6,2.6c0.5,0.8,0.8,1.6,1,2.5
			c0.1,0.6,0.2,1.2,0.2,1.9c0,0.6-0.1,1.2-0.2,1.9c-0.2,0.9-0.6,1.7-1,2.5c-0.7,1.1-1.6,2-2.6,2.6c-0.8,0.5-1.6,0.8-2.5,1l-0.1,0
			c0,0,0,0,0,0C139.5,80.3,138.9,80.4,138.4,80.4z M138.4,64.3c-0.6,0-1.2,0.1-1.8,0.2c-0.8,0.2-1.7,0.5-2.4,1
			c-1,0.6-1.9,1.5-2.5,2.5c-0.5,0.7-0.8,1.5-1,2.4c-0.1,0.6-0.2,1.2-0.2,1.8c0,0.6,0.1,1.2,0.2,1.8c0.2,0.8,0.5,1.6,1,2.4
			c0.6,1,1.5,1.9,2.5,2.5c0.7,0.5,1.5,0.8,2.4,1c1.1,0.3,2.3,0.3,3.4,0c0,0,0,0,0,0l0.1,0c0.8-0.2,1.6-0.5,2.4-1
			c1-0.6,1.9-1.5,2.5-2.5c0.5-0.7,0.8-1.5,1-2.4c0.1-0.6,0.2-1.2,0.2-1.8c0-0.6-0.1-1.2-0.2-1.8c-0.2-0.8-0.5-1.7-1-2.4
			c-0.6-1-1.5-1.9-2.5-2.5c-0.7-0.5-1.5-0.8-2.4-1l-0.1,0c0,0,0,0,0,0C139.5,64.3,138.9,64.3,138.4,64.3z"/>
		<path class="st9" d="M145.3,72.2c0,0.5-0.1,1.1-0.2,1.6c-0.2,0.8-0.5,1.5-0.9,2.1c-0.6,0.9-1.3,1.7-2.2,2.2
			c-0.6,0.4-1.3,0.7-2.1,0.9h0c-0.5,0.1-1,0.2-1.6,0.2c-0.5,0-1.1-0.1-1.6-0.2c-0.8-0.2-1.5-0.5-2.1-0.9c-0.9-0.6-1.7-1.3-2.2-2.2
			c-0.4-0.6-0.7-1.4-0.9-2.1c-0.1-0.5-0.2-1-0.2-1.6c0-0.5,0.1-1.1,0.2-1.6c0.2-0.8,0.5-1.5,0.9-2.1c0.6-0.9,1.3-1.7,2.2-2.2
			c0.6-0.4,1.4-0.7,2.1-0.9c0.5-0.1,1-0.2,1.6-0.2c0.5,0,1.1,0.1,1.6,0.2h0c0.8,0.2,1.5,0.5,2.1,0.9c0.9,0.6,1.7,1.3,2.2,2.2
			c0.4,0.6,0.7,1.4,0.9,2.1C145.3,71.1,145.3,71.6,145.3,72.2z"/>
		<path class="st2" d="M139.9,65.4c-0.1,0.4-0.8,0.8-1.6,0.8c-0.8,0-1.4-0.3-1.6-0.8c0.5-0.1,1-0.2,1.6-0.2
			C138.9,65.2,139.4,65.3,139.9,65.4z"/>
		<path class="st2" d="M134.1,67.9c-0.6,0.6-1.2,0.8-1.7,0.6c0.6-0.9,1.3-1.7,2.2-2.2C134.9,66.7,134.7,67.4,134.1,67.9z"/>
		<path class="st2" d="M132.3,72.2c0,0.8-0.3,1.4-0.8,1.6c-0.1-0.5-0.2-1-0.2-1.6c0-0.5,0.1-1.1,0.2-1.6
			C132,70.7,132.3,71.4,132.3,72.2z"/>
		<path class="st2" d="M134.7,78.1c-0.9-0.6-1.7-1.3-2.2-2.2c0.4-0.2,1.1,0,1.7,0.6C134.7,77,134.9,77.7,134.7,78.1z"/>
		<path class="st2" d="M139.9,79c-0.5,0.1-1,0.2-1.6,0.2c-0.5,0-1.1-0.1-1.6-0.2c0.1-0.4,0.8-0.8,1.6-0.8
			C139.1,78.2,139.8,78.5,139.9,79z"/>
		<path class="st2" d="M144.3,75.9c-0.6,0.9-1.3,1.7-2.2,2.2c-0.2-0.4,0-1.1,0.6-1.7C143.2,75.9,143.9,75.7,144.3,75.9z"/>
		<path class="st2" d="M145.3,72.2c0,0.5-0.1,1.1-0.2,1.6c-0.4-0.1-0.8-0.8-0.8-1.6c0-0.8,0.3-1.4,0.8-1.6
			C145.3,71.1,145.3,71.6,145.3,72.2z"/>
		<path class="st2" d="M144.3,68.5c-0.4,0.2-1.1,0-1.7-0.6c-0.6-0.6-0.8-1.2-0.6-1.7C143,66.8,143.7,67.6,144.3,68.5z"/>
		<path class="st10" d="M139.7,72.2c0,0.7-0.6,1.3-1.3,1.3c-0.7,0-1.3-0.6-1.3-1.3c0-0.7,0.6-1.3,1.3-1.3
			C139.1,70.9,139.7,71.5,139.7,72.2z"/>
	</g>
</g>
</svg>
