<?xml version="1.0" encoding="utf-8"?>
<!-- Generator: Adobe Illustrator 26.5.0, SVG Export Plug-In . SVG Version: 6.00 Build 0)  -->
<svg version="1.1" id="圖層_1" xmlns="http://www.w3.org/2000/svg" xmlns:xlink="http://www.w3.org/1999/xlink" x="0px" y="0px"
	 viewBox="0 0 640 512" style="enable-background:new 0 0 640 512;" xml:space="preserve">
<style type="text/css">
	.st0{fill:none;}
	.st1{fill:#0D6EFD;}
	.st2{fill:#023D75;}
</style>
<rect x="120" y="160" class="st0" width="80" height="64"/>
<path class="st1" d="M0,128c0,17.7,14.3,32,32,32h40v64H0v96c53,0,96,43,96,96v64c0,17.7,14.3,32,32,32h32c17.7,0,32-14.3,32-32v-64
	c0-53,43-96,96-96v-96h-40v-64h40V96H32C14.3,96,0,110.3,0,128z M120,160h80v64h-80V160z"/>
<g>
	<path class="st0" d="M480,200c-13.3,0-24,10.7-24,24v64c0,13.3,10.7,24,24,24s24-10.7,24-24v-64C504,210.7,493.3,200,480,200z"/>
	<path class="st0" d="M480,360c-13.3,0-24,10.7-24,24v64c0,13.3,10.7,24,24,24s24-10.7,24-24v-64C504,370.7,493.3,360,480,360z"/>
	<path class="st0" d="M480,40c-13.3,0-24,10.7-24,24v64c0,13.3,10.7,24,24,24s24-10.7,24-24V64C504,50.7,493.3,40,480,40z"/>
	<path class="st2" d="M608,0H352c-17.7,0-32,14.3-32,32v448c0,17.7,14.3,32,32,32h256c17.7,0,32-14.3,32-32V32
		C640,14.3,625.7,0,608,0z M504,448c0,13.3-10.7,24-24,24s-24-10.7-24-24v-64c0-13.3,10.7-24,24-24s24,10.7,24,24V448z M504,288
		c0,13.3-10.7,24-24,24s-24-10.7-24-24v-64c0-13.3,10.7-24,24-24s24,10.7,24,24V288z M504,128c0,13.3-10.7,24-24,24s-24-10.7-24-24
		V64c0-13.3,10.7-24,24-24s24,10.7,24,24V128z"/>
</g>
</svg>
